<svg width="33" height="34" viewBox="0 0 33 34" fill="none" xmlns="http://www.w3.org/2000/svg">
<g id="monero" clip-path="url(#clip0_2114_1260)">
<path id="Vector" d="M16.4997 0.5C7.38865 0.5 0 7.88852 0 16.9999C0 18.8209 0.295195 20.5726 0.840211 22.2116H5.775V8.32886L16.5 19.0539L27.2247 8.32886V22.2114H32.1595C32.7049 20.5725 33.0001 18.8208 33.0001 16.9997C33 7.88813 25.6112 0.5 16.4997 0.5Z" fill="#FF6600"/>
<path id="Vector_2" d="M14.0336 21.5197L9.35306 16.839V25.5743H2.40063C5.29716 30.3262 10.5283 33.4995 16.4995 33.4995C22.4707 33.4995 27.7024 30.3262 30.5985 25.5743H23.6462V16.8389L18.9656 21.5195L16.4996 23.9853L14.0339 21.5196H14.0336V21.5197Z" fill="#4C4C4C"/>
</g>
<defs>
<clipPath id="clip0_2114_1260">
<rect width="33" height="33" fill="white" transform="translate(0 0.5)"/>
</clipPath>
</defs>
</svg>
