<svg width="35" height="34" viewBox="0 0 35 34" fill="none" xmlns="http://www.w3.org/2000/svg">
<path d="M17.2191 33.5C26.7325 33.5 34.4382 26.111 34.4382 17C34.4382 7.88904 26.7325 0.5 17.2191 0.5C7.70572 0.5 0 7.88904 0 17C0 26.111 7.71231 33.5 17.2191 33.5Z" fill="#FF060A"/>
<path d="M26.904 14.0378C25.954 13.1933 24.6345 11.9068 23.5657 10.9964L23.4997 10.9568C23.3942 10.8776 23.2754 10.8117 23.1501 10.7655C20.5639 10.3037 8.53034 8.14634 8.29943 8.17273C8.23345 8.17932 8.16748 8.20571 8.1147 8.2387L8.05532 8.28488C7.98275 8.35745 7.92338 8.44322 7.89039 8.54218L7.8772 8.58176V8.79947V8.83246C9.22966 12.4478 14.5801 24.2835 15.6357 27.0676C15.7017 27.2589 15.8204 27.6151 16.0447 27.6349H16.0975C16.2163 27.6349 16.7309 26.9818 16.7309 26.9818C16.7309 26.9818 25.921 16.3073 26.8512 15.1725C26.97 15.034 27.0755 14.8822 27.1679 14.7239C27.1943 14.5986 27.1811 14.4732 27.1349 14.3545C27.0887 14.2357 27.0029 14.1235 26.904 14.0378ZM19.0795 15.2847L22.9983 12.1707L25.3008 14.2027L19.0795 15.2847ZM17.5555 15.0802L10.8064 9.77588L21.7317 11.7089L17.5555 15.0802ZM18.1625 16.4656L25.0699 15.3968L17.1729 24.521L18.1625 16.4656ZM9.88939 10.3103L16.9947 16.083L15.9656 24.5276L9.88939 10.3103Z" fill="white"/>
</svg>
