<svg width="14" height="13" viewBox="0 0 14 13" fill="none" xmlns="http://www.w3.org/2000/svg">
<path d="M8.39453 0.707031C8.69531 0.570312 9.07812 0.625 9.32422 0.871094L13.6992 4.80859C13.8906 4.97266 14 5.19141 14 5.4375C14 5.71094 13.8906 5.92969 13.6992 6.09375L9.32422 10.0312C9.07812 10.2773 8.69531 10.332 8.39453 10.1953C8.06641 10.0586 7.875 9.73047 7.875 9.375V7.625H5.25C3.80078 7.625 2.625 8.80078 2.625 10.25C2.625 11.0977 2.95312 11.5625 3.22656 11.8086C3.36328 11.9453 3.5 12.1367 3.5 12.3555C3.5 12.6562 3.25391 12.875 2.95312 12.875C2.87109 12.875 2.78906 12.875 2.73438 12.8477C2.21484 12.5469 0 11.1797 0 8.0625C0 5.41016 2.13281 3.25 4.8125 3.25H7.875V1.5C7.875 1.17188 8.06641 0.84375 8.39453 0.707031Z" fill="#D0D0D0"/>
</svg>
