<svg width="23" height="18" viewBox="0 0 23 18" fill="none" xmlns="http://www.w3.org/2000/svg">
<path d="M2.15625 0.75H20.8438C22.0117 0.75 23 1.73828 23 2.90625C23 3.625 22.6406 4.25391 22.1016 4.6582L12.3535 11.9805C11.8145 12.3848 11.1406 12.3848 10.6016 11.9805L0.853516 4.6582C0.314453 4.25391 0 3.625 0 2.90625C0 1.73828 0.943359 0.75 2.15625 0.75ZM0 5.78125L9.74805 13.1484C10.7812 13.9121 12.1738 13.9121 13.207 13.1484L23 5.78125V15.125C23 16.7422 21.6973 18 20.125 18H2.875C1.25781 18 0 16.7422 0 15.125V5.78125Z" fill="#D0D0D0"/>
</svg>
