<svg width="25" height="24" viewBox="0 0 25 24" fill="none" xmlns="http://www.w3.org/2000/svg">
<path d="M12.5 0.875C16.5879 0.875 20.3613 3.07617 22.4277 6.625C24.4941 10.2188 24.4941 14.5762 22.4277 18.125C20.3613 21.7188 16.5879 23.875 12.5 23.875C8.36719 23.875 4.59375 21.7188 2.52734 18.125C0.460938 14.5762 0.460938 10.2188 2.52734 6.625C4.59375 3.07617 8.36719 0.875 12.5 0.875ZM11.4219 6.26562V12.375C11.4219 12.7344 11.6016 13.0938 11.8711 13.2734L16.1836 16.1484C16.6777 16.5078 17.3516 16.373 17.7109 15.8789C18.0254 15.3848 17.8906 14.7109 17.3965 14.3516L13.5781 11.8359V6.26562C13.5781 5.68164 13.084 5.1875 12.5 5.1875C11.8711 5.1875 11.4219 5.68164 11.4219 6.26562Z" fill="#D0D0D0"/>
</svg>
