<svg width="19" height="17" viewBox="0 0 19 17" fill="none" xmlns="http://www.w3.org/2000/svg">
<path d="M12.1289 0.65625L16.5938 5.19141C18.457 7.05469 18.457 10.043 16.5938 11.9062L12.6562 15.8789C12.3398 16.2305 11.8125 16.2305 11.4609 15.9141C11.1445 15.5625 11.1445 15.0352 11.4609 14.7188L15.3984 10.7109C16.5938 9.51562 16.5938 7.58203 15.3984 6.38672L10.8984 1.81641C10.582 1.5 10.582 0.972656 10.9336 0.621094C11.25 0.304688 11.7773 0.304688 12.1289 0.65625ZM0 7.33594V2.0625C0 1.14844 0.738281 0.375 1.6875 0.375H6.92578C7.52344 0.375 8.08594 0.621094 8.50781 1.04297L14.4141 6.94922C15.293 7.82812 15.293 9.26953 14.4141 10.1484L9.73828 14.8242C8.85938 15.7031 7.41797 15.7031 6.53906 14.8242L0.632812 8.91797C0.210938 8.49609 0 7.93359 0 7.33594ZM5.0625 4.3125C5.0625 3.71484 4.53516 3.1875 3.9375 3.1875C3.30469 3.1875 2.8125 3.71484 2.8125 4.3125C2.8125 4.94531 3.30469 5.4375 3.9375 5.4375C4.53516 5.4375 5.0625 4.94531 5.0625 4.3125Z" fill="#D0D0D0"/>
</svg>
