<svg width="145" height="38" viewBox="0 0 145 38" fill="none" xmlns="http://www.w3.org/2000/svg">
<g id="LOGO">
<path id="Vector" d="M125.782 37.97C114.674 37.97 106.82 30.2716 106.82 19.3183C106.82 8.36496 114.674 0.666626 125.782 0.666626C136.89 0.666626 144.744 8.36496 144.744 19.3183C144.744 30.2716 136.89 37.97 125.782 37.97ZM125.782 28.98C131.362 28.98 135.082 25.105 135.082 19.3183C135.082 13.5316 131.362 9.65663 125.782 9.65663C120.202 9.65663 116.482 13.48 116.482 19.3183C116.482 25.105 120.202 28.98 125.782 28.98Z" fill="white"/>
<path id="Vector_2" d="M102.877 16.425C102.981 17.51 103.084 18.5433 103.084 19.5766C103.084 30.685 96.0055 37.97 84.7938 37.97C74.1505 37.97 66.6072 30.2716 66.6072 19.3183C66.6072 8.36496 74.1505 0.666626 84.7938 0.666626C93.5772 0.666626 99.8805 5.10996 102.102 13.1183H92.1822C90.6838 10.69 88.6172 9.55329 85.1555 9.55329C79.8338 9.55329 76.2688 13.48 76.2688 19.3183C76.2688 25.1566 79.9372 29.0833 85.4138 29.0833C89.1855 29.0833 92.0272 27.1716 93.2672 24.2783H85.0522V16.425H102.877Z" fill="white"/>
<path id="Vector_3" d="M43.741 37.97C32.6326 37.97 24.7793 30.2716 24.7793 19.3183C24.7793 8.36496 32.6326 0.666626 43.741 0.666626C54.8493 0.666626 62.7026 8.36496 62.7026 19.3183C62.7026 30.2716 54.8493 37.97 43.741 37.97ZM43.741 28.98C49.321 28.98 53.041 25.105 53.041 19.3183C53.041 13.5316 49.321 9.65663 43.741 9.65663C38.161 9.65663 34.441 13.48 34.441 19.3183C34.441 25.105 38.161 28.98 43.741 28.98Z" fill="white"/>
<path id="Vector_4" d="M9.455 28.9283H22.5267V37.4017H0V1.23499H9.455V28.9283Z" fill="white"/>
</g>
</svg>
