<svg width="44" height="50" viewBox="0 0 44 50" fill="none" xmlns="http://www.w3.org/2000/svg">
<g clip-path="url(#clip0_2118_231)">
<path d="M6.25 3.125C2.80273 3.125 0 5.92773 0 9.375V40.625C0 44.0723 2.80273 46.875 6.25 46.875H15.8398V32.6367H10.6836V25H15.8398V21.709C15.8398 13.2031 19.6875 9.25781 28.0469 9.25781C29.6289 9.25781 32.3633 9.57031 33.4863 9.88281V16.7969C32.9004 16.7383 31.875 16.6992 30.5957 16.6992C26.4941 16.6992 24.9121 18.252 24.9121 22.2852V25H33.0762L31.6699 32.6367H24.9023V46.875H37.5C40.9473 46.875 43.75 44.0723 43.75 40.625V9.375C43.75 5.92773 40.9473 3.125 37.5 3.125H6.25Z" fill="#D0D0D0"/>
</g>
<defs>
<clipPath id="clip0_2118_231">
<rect width="43.75" height="50" fill="white"/>
</clipPath>
</defs>
</svg>
