<svg width="45" height="50" viewBox="0 0 45 50" fill="none" xmlns="http://www.w3.org/2000/svg">
<g clip-path="url(#clip0_2118_235)">
<path d="M19.4844 20.6738C18.9156 21.0541 18.4273 21.5426 18.0474 22.1116C17.6674 22.6805 17.4032 23.3188 17.2699 23.9898C17.0007 25.345 17.2809 26.7517 18.0488 27.9004C18.8168 29.0491 20.0096 29.8456 21.3648 30.1148C22.72 30.3841 24.1267 30.1039 25.2754 29.3359C26.4241 28.568 27.2206 27.3752 27.4898 26.02C27.7591 24.6647 27.4789 23.258 26.7109 22.1094C25.943 20.9607 24.7502 20.1641 23.395 19.8949C22.0397 19.6257 20.633 19.9059 19.4844 20.6738ZM33.3809 13.9941C32.873 13.4863 32.2578 13.0859 31.584 12.8223C29.8164 12.1289 25.959 12.1582 23.4688 12.1875C23.0684 12.1875 22.6973 12.1973 22.375 12.1973C22.0527 12.1973 21.6719 12.1973 21.2617 12.1875C18.7715 12.1582 14.9336 12.1191 13.166 12.8223C12.4922 13.0859 11.8867 13.4863 11.3691 13.9941C10.8516 14.502 10.4609 15.1172 10.1973 15.791C9.50391 17.5586 9.54297 21.4258 9.5625 23.916C9.5625 24.3164 9.57227 24.6875 9.57227 25C9.57227 25.3125 9.57227 25.6836 9.5625 26.084C9.54297 28.5742 9.50391 32.4414 10.1973 34.209C10.4609 34.8828 10.8613 35.4883 11.3691 36.0059C11.877 36.5234 12.4922 36.9141 13.166 37.1777C14.9336 37.8711 18.791 37.8418 21.2812 37.8125C21.6816 37.8125 22.0527 37.8027 22.375 37.8027C22.6973 37.8027 23.0781 37.8027 23.4883 37.8125C25.9785 37.8418 29.8164 37.8809 31.584 37.1777C32.2578 36.9141 32.8633 36.5137 33.3809 36.0059C33.8984 35.498 34.2891 34.8828 34.5527 34.209C35.2559 32.4512 35.2168 28.6035 35.1875 26.1035C35.1875 25.6934 35.1777 25.3125 35.1777 24.9902C35.1777 24.668 35.1777 24.2969 35.1875 23.877C35.2168 21.3867 35.2559 17.5391 34.5527 15.7715C34.2891 15.0977 33.8887 14.4922 33.3809 13.9746V13.9941ZM26.8281 18.3398C28.5945 19.5209 29.8194 21.3552 30.2333 23.4394C30.6472 25.5235 30.2162 27.6867 29.0352 29.4531C28.4504 30.3277 27.699 31.0786 26.824 31.6629C25.9491 32.2471 24.9676 32.6533 23.9356 32.8583C21.8515 33.2722 19.6883 32.8412 17.9219 31.6602C16.1555 30.4804 14.9301 28.6473 14.5153 26.5641C14.1005 24.4808 14.5302 22.3181 15.71 20.5518C16.8897 18.7854 18.7228 17.56 20.8061 17.1452C22.8893 16.7304 25.052 17.1601 26.8184 18.3398H26.8281ZM29.6797 18.2129C29.377 18.0078 29.1328 17.7148 28.9863 17.373C28.8398 17.0312 28.8105 16.6602 28.8789 16.2891C28.9473 15.918 29.1328 15.5957 29.3867 15.332C29.6406 15.0684 29.9824 14.8926 30.3438 14.8242C30.7051 14.7559 31.0859 14.7852 31.4277 14.9316C31.7695 15.0781 32.0625 15.3125 32.2676 15.6152C32.4727 15.918 32.5801 16.2793 32.5801 16.6504C32.5801 16.8945 32.5312 17.1387 32.4434 17.3633C32.3555 17.5879 32.209 17.793 32.043 17.9688C31.877 18.1445 31.6621 18.2812 31.4375 18.3789C31.2129 18.4766 30.9688 18.5254 30.7246 18.5254C30.3535 18.5254 29.9922 18.418 29.6895 18.2129H29.6797ZM44.25 9.375C44.25 5.92773 41.4473 3.125 38 3.125H6.75C3.30273 3.125 0.5 5.92773 0.5 9.375V40.625C0.5 44.0723 3.30273 46.875 6.75 46.875H38C41.4473 46.875 44.25 44.0723 44.25 40.625V9.375ZM35.3633 37.9883C33.5371 39.8145 31.3203 40.3906 28.8203 40.5176C26.2422 40.6641 18.5078 40.6641 15.9297 40.5176C13.4297 40.3906 11.2129 39.8145 9.38672 37.9883C7.56055 36.1621 6.98437 33.9453 6.86719 31.4453C6.7207 28.8672 6.7207 21.1328 6.86719 18.5547C6.99414 16.0547 7.56055 13.8379 9.38672 12.0117C11.2129 10.1855 13.4395 9.60937 15.9297 9.49219C18.5078 9.3457 26.2422 9.3457 28.8203 9.49219C31.3203 9.61914 33.5371 10.1855 35.3633 12.0117C37.1895 13.8379 37.7656 16.0547 37.8828 18.5547C38.0293 21.123 38.0293 28.8477 37.8828 31.4355C37.7559 33.9355 37.1895 36.1523 35.3633 37.9785V37.9883Z" fill="#D0D0D0"/>
</g>
<defs>
<clipPath id="clip0_2118_235">
<rect width="43.75" height="50" fill="white" transform="translate(0.5)"/>
</clipPath>
</defs>
</svg>
