<svg width="45" height="50" viewBox="0 0 45 50" fill="none" xmlns="http://www.w3.org/2000/svg">
<g clip-path="url(#clip0_2118_233)">
<path d="M7 3.125C3.55273 3.125 0.75 5.92773 0.75 9.375V40.625C0.75 44.0723 3.55273 46.875 7 46.875H38.25C41.6973 46.875 44.5 44.0723 44.5 40.625V9.375C44.5 5.92773 41.6973 3.125 38.25 3.125H7ZM36.0137 11.3281L25.877 22.9102L37.8008 38.6719H28.4648L21.1602 29.1113L12.791 38.6719H8.15234L18.9922 26.2793L7.55664 11.3281H17.127L23.7383 20.0684L31.375 11.3281H36.0137ZM32.3223 35.8984L15.7305 13.9551H12.9668L29.7441 35.8984H32.3125H32.3223Z" fill="#D0D0D0"/>
</g>
<defs>
<clipPath id="clip0_2118_233">
<rect width="43.75" height="50" fill="white" transform="translate(0.75)"/>
</clipPath>
</defs>
</svg>
